<svg width="40" height="40" fill="none" xmlns="http://www.w3.org/2000/svg"><path d="M15.15 28.5L28.5 20l-13.35-8.5v17zM20 40c-2.733 0-5.317-.525-7.75-1.575-2.433-1.05-4.558-2.483-6.375-4.3-1.817-1.817-3.25-3.942-4.3-6.375C.525 25.317 0 22.733 0 20c0-2.767.525-5.367 1.575-7.8 1.05-2.433 2.483-4.55 4.3-6.35 1.817-1.8 3.942-3.225 6.375-4.275C14.683.525 17.267 0 20 0c2.767 0 5.367.525 7.8 1.575 2.433 1.05 4.55 2.475 6.35 4.275 1.8 1.8 3.225 3.917 4.275 6.35C39.475 14.633 40 17.233 40 20c0 2.733-.525 5.317-1.575 7.75-1.05 2.433-2.475 4.558-4.275 6.375-1.8 1.817-3.917 3.25-6.35 4.3C25.367 39.475 22.767 40 20 40z" fill="#fff" fill-opacity=".5"/></svg>